<svg height="100" viewBox="0 0 100 100" width="100" xmlns="http://www.w3.org/2000/svg"><path d="m56.6543441 70.1604556c-3.5676139 3.7144393-8.0131925 5.6932528-13.3285298 5.4134157-14.1687719-.7459447-19.2059074-13.5014269-15.9945102-29.7325532 2.7644357-13.9720818 13.0965918-24.2542727 24.5556908-23.5395583 4.4647186.2784685 8.0134841 2.2186477 10.5406404 5.2424458.746661-2.1401387 3.0226494-3.3897718 5.2622811-2.8199961 2.3650596.6016853 3.7939763 3.0044275 3.1915747 5.3666749l-1.913193 7.5023624-5.2237965 25.5454619c.3402801 4.1032534 2.6293709 5.7161764 7.0755812 5.7161764 9.541056 0 17.141822-9.2728617 17.141822-25.2112069 0-19.6209128-13.118257-32.816092-32.6565218-32.816092-22.689138 0-42.4672878 18.1966008-42.4672878 43.2586207 0 21.8318769 14.5637765 35.0862069 33.9113872 35.0862069 11.4307324 0 19.4349351-2.2910148 29.9302087-9.3494146 2.02443-1.3614925 4.7705764-.8260268 6.1336897 1.195996s.8270103 4.7649039-1.1974197 6.1263964c-12.0004001 8.0706444-21.7268375 10.8546084-34.8664787 10.8546084-24.0547472 0-42.7494824-17.0138693-42.7494824-43.9137931 0-30.1066845 23.8898622-52.0862069 51.305383-52.0862069 24.4333852 0 41.494617 17.1612746 41.494617 41.6436782 0 20.4677207-11.1239171 34.0387931-25.9799172 34.0387931-6.4143039 0-11.5834581-2.5399234-14.1657387-7.5220157zm1.0516113-23.9264535c1.6949671-8.5002171-1.2270498-14.9214913-6.3672686-15.2420914-6.5241555-.4069175-13.4214124 6.456985-15.4144096 16.5300427-2.3287427 11.7699913.5145001 18.9699035 7.8646234 19.3568661 6.7155571.3535546 11.2690305-7.3650436 13.9170548-20.6448174z" fill="none" stroke="#757575" stroke-linecap="round" stroke-linejoin="round" stroke-width="4"/></svg>